<?xml version="1.0" encoding="UTF-8" standalone="no"?>
<svg
   width="180"
   height="180"
   viewBox="0 0 180 180"
   fill="none"
   version="1.1"
   id="svg1"
   sodipodi:docname="logo-main.svg"
   inkscape:version="1.4.2 (ebf0e940, 2025-05-08)"
   xmlns:inkscape="http://www.inkscape.org/namespaces/inkscape"
   xmlns:sodipodi="http://sodipodi.sourceforge.net/DTD/sodipodi-0.dtd"
   xmlns="http://www.w3.org/2000/svg"
   xmlns:svg="http://www.w3.org/2000/svg">
  <defs
     id="defs1">
    <linearGradient
       id="swatch1"
       inkscape:swatch="solid">
      <stop
         style="stop-color:#000000;stop-opacity:1;"
         offset="0"
         id="stop1" />
    </linearGradient>
  </defs>
  <sodipodi:namedview
     id="namedview1"
     pagecolor="#ffffff"
     bordercolor="#000000"
     borderopacity="0.25"
     inkscape:showpageshadow="2"
     inkscape:pageopacity="0.0"
     inkscape:pagecheckerboard="0"
     inkscape:deskcolor="#d1d1d1"
     inkscape:zoom="2.7251583"
     inkscape:cx="24.585727"
     inkscape:cy="99.260288"
     inkscape:window-width="3440"
     inkscape:window-height="1440"
     inkscape:window-x="1512"
     inkscape:window-y="0"
     inkscape:window-maximized="0"
     inkscape:current-layer="svg1" />
  <rect
     width="180"
     height="180"
     rx="32"
     fill="#1A3F5F"
     id="rect1" />
  <g
     id="g1"
     transform="translate(0,-2.0000691)">
    <path
       d="m 32,82 58,-46 58,46 v 66 H 32 Z"
       stroke="#ffffff"
       stroke-width="10"
       stroke-linejoin="round"
       id="path1" />
  </g>
  <path
     d="m 99.507843,105.08173 h 0.0211 M 70.984328,84.860887 v 31.454643 c 0,2.48177 1.89191,4.49352 4.2257,4.49352 h 29.579942 c 2.33386,0 4.2257,-2.01175 4.2257,-4.49352 V 93.847927 c 0,-11.328204 -38.031342,2.34117 -38.031342,-8.98704 z m 0,0 c 0,-2.481704 1.89191,-4.493521 4.2257,-4.493521 h 25.354242 m 0,24.714364 c 0,0.62033 -0.47307,1.12338 -1.056427,1.12338 -0.58336,0 -1.05643,-0.50305 -1.05643,-1.12338 0,-0.62033 0.47307,-1.12338 1.05643,-1.12338 0.583357,0 1.056427,0.50305 1.056427,1.12338 z"
     stroke="#000000"
     stroke-width="4.35756"
     stroke-linecap="round"
     stroke-linejoin="round"
     id="path1-7"
     sodipodi:nodetypes="cccsssssccscsssss"
     style="fill:none;stroke:#e97a3d;stroke-opacity:1" />
</svg>
